<svg t="1777291094950" class="icon" viewBox="0 0 1024 1024" version="1.1" xmlns="http://www.w3.org/2000/svg" width="200" height="200">
  <defs>
    <linearGradient id="cyanGradient" x1="0%" y1="0%" x2="100%" y2="100%">
      <!-- 加深暗色底 -->
      <stop offset="0%" style="stop-color:rgba(0, 160, 120, 0.25);"/>
      <!-- 加深主色 -->
      <stop offset="50%" style="stop-color:rgb(0, 190, 145);"/>
      <!-- 加深高光暗调 -->
      <stop offset="100%" style="stop-color:rgba(0, 217, 163, 0.6);"/>
    </linearGradient>
  </defs>
  <path d="M769.7408 416.256H134.656l-20.5824 58.5728-3.2768 9.3184h668.5696l-9.6256-67.8912z m27.136 191.5904h-360.448l13.9264 67.8912h356.352l-9.8304-67.8912z m-13.5168-95.744H100.864L77.1072 579.584l-0.1024 0.3072h715.8784l-9.5232-67.7888z m36.0448-286.9248l-107.9296 67.3792h204.8l98.0992-67.3792H819.4048z m-776.2944 450.56h331.1616l1.024-3.072 22.8352-64.8192H67.1744l-24.064 67.8912z m490.0864-450.56H202.0352l-23.6544 67.3792h330.9568l23.8592-67.3792zM9.5232 771.1744h331.1616l23.6544-67.6864H33.28L9.5232 771.1744z m446.5664-67.6864l14.5408 70.9632h350.208l-10.0352-70.9632H456.0896z m101.9904-315.0848h218.5216l98.9184-67.7888H666.8288L558.08 388.4032z m-58.4704-67.8912H168.3456l-23.8592 67.7888h331.0592l24.064-67.7888z" fill="url(#cyanGradient)"></path>
</svg>